# xmcd CD database file
#
# Track frame offsets:
#	150
#	26593
#	41176
#	57706
#	66657
#	75352
#	90187
#	110542
#	130002
#	140275
#
# Disc length: 2122 seconds
#
# Revision: 0
# Processed by: cddbd v1.5.2PL0 Copyright (c) Steve Scherf et al.
# Submitted via: CDex 1.51
#
DISCID=8508480a
DTITLE=Raz'mataz Jazz Band - Hot Dixieland Jazz
DYEAR=2008
DGENRE=Jazz
TTITLE0=Bourbon Street Parade
TTITLE1=Sheik Of Araby
TTITLE2=Cherokee Maiden
TTITLE3=Tell Me
TTITLE4=How Can I Love Someone Else
TTITLE5=When The Saints Go Marching In
TTITLE6=Since My Best Girl Turned Me Down
TTITLE7=They're Diggin' Willie's Grave
TTITLE8=Royal Garden Blues
TTITLE9=I'm Looking For A Sweetheart
EXTD=YEAR: 2008
EXTT0=
EXTT1=
EXTT2=
EXTT3=
EXTT4=
EXTT5=
EXTT6=
EXTT7=
EXTT8=
EXTT9=
PLAYORDER=
